{
	"asset":{
		"generator":"Khronos glTF Blender I/O v4.1.63",
		"version":"2.0"
	},
	"extensionsUsed":[
		"KHR_materials_specular"
	],
	"scene":0,
	"scenes":[
		{
			"name":"Scene",
			"nodes":[
				4
			]
		}
	],
	"nodes":[
		{
			"mesh":0,
			"name":"LP_Material.001_0"
		},
		{
			"children":[
				0
			],
			"name":"LP",
			"rotation":[
				-0.70710688829422,
				0,
				0,
				0.7071066498756409
			],
			"scale":[
				16.774457931518555,
				16.774456024169922,
				16.774456024169922
			],
			"translation":[
				-7.189606189727783,
				2.175579071044922,
				0.0907801166176796
			]
		},
		{
			"children":[
				1
			],
			"name":"RootNode"
		},
		{
			"children":[
				2
			],
			"name":"66c7a8653ce14bcbaf5ec2aa90179028.fbx",
			"rotation":[
				0.70710688829422,
				0,
				0,
				0.7071066498756409
			],
			"scale":[
				0.009999999776482582,
				0.010000000707805157,
				0.010000000707805157
			]
		},
		{
			"children":[
				3
			],
			"name":"Sketchfab_model",
			"rotation":[
				-0.70710688829422,
				0,
				0,
				0.7071066498756409
			]
		}
	],
	"materials":[
		{
			"doubleSided":true,
			"extensions":{
				"KHR_materials_specular":{
					"specularFactor":0.20000000298023224
				}
			},
			"name":"Material.001",
			"normalTexture":{
				"index":0,
				"texCoord":1
			},
			"pbrMetallicRoughness":{
				"baseColorTexture":{
					"index":1
				},
				"metallicRoughnessTexture":{
					"index":2
				}
			}
		}
	],
	"meshes":[
		{
			"name":"LP_Material.001_0",
			"primitives":[
				{
					"attributes":{
						"POSITION":0,
						"NORMAL":1,
						"TEXCOORD_0":2,
						"TEXCOORD_1":3,
						"TEXCOORD_2":4,
						"COLOR_0":5
					},
					"indices":6,
					"material":0
				}
			]
		}
	],
	"textures":[
		{
			"sampler":0,
			"source":0
		},
		{
			"sampler":0,
			"source":1
		},
		{
			"sampler":0,
			"source":2
		}
	],
	"images":[
		{
			"mimeType":"image/png",
			"name":"Material.001_normal",
			"uri":"Material_001_normal.png"
		},
		{
			"mimeType":"image/png",
			"name":"Material.001_baseColor",
			"uri":"Material_001_baseColor.png"
		},
		{
			"mimeType":"image/png",
			"name":"Material.001_metallicRoughness",
			"uri":"Material_001_metallicRoughness.png"
		}
	],
	"accessors":[
		{
			"bufferView":0,
			"componentType":5126,
			"count":13596,
			"max":[
				2.8009872436523438,
				0.18897901475429535,
				1.6046360731124878
			],
			"min":[
				-1.941357970237732,
				-0.26396313309669495,
				-0.005889157764613628
			],
			"type":"VEC3"
		},
		{
			"bufferView":1,
			"componentType":5126,
			"count":13596,
			"type":"VEC3"
		},
		{
			"bufferView":2,
			"componentType":5126,
			"count":13596,
			"type":"VEC2"
		},
		{
			"bufferView":3,
			"componentType":5126,
			"count":13596,
			"type":"VEC2"
		},
		{
			"bufferView":4,
			"componentType":5126,
			"count":13596,
			"type":"VEC2"
		},
		{
			"bufferView":5,
			"componentType":5126,
			"count":13596,
			"type":"VEC3"
		},
		{
			"bufferView":6,
			"componentType":5123,
			"count":37863,
			"type":"SCALAR"
		}
	],
	"bufferViews":[
		{
			"buffer":0,
			"byteLength":163152,
			"byteOffset":0,
			"target":34962
		},
		{
			"buffer":0,
			"byteLength":163152,
			"byteOffset":163152,
			"target":34962
		},
		{
			"buffer":0,
			"byteLength":108768,
			"byteOffset":326304,
			"target":34962
		},
		{
			"buffer":0,
			"byteLength":108768,
			"byteOffset":435072,
			"target":34962
		},
		{
			"buffer":0,
			"byteLength":108768,
			"byteOffset":543840,
			"target":34962
		},
		{
			"buffer":0,
			"byteLength":163152,
			"byteOffset":652608,
			"target":34962
		},
		{
			"buffer":0,
			"byteLength":75726,
			"byteOffset":815760,
			"target":34963
		}
	],
	"samplers":[
		{
			"magFilter":9729,
			"minFilter":9987
		}
	],
	"buffers":[
		{
			"byteLength":891488,
			"uri":"New%20gltf.bin"
		}
	]
}
